<svg width="24" height="18" viewBox="0 0 24 18" fill="none" xmlns="http://www.w3.org/2000/svg">
<path d="M17.8774 11.0727V13.9695C17.8774 15.1645 16.5365 16.1422 14.8978 16.1422H8.93858C7.2998 16.1422 5.95898 15.1645 5.95898 13.9695V10.334L9.82254 10.3485C10.5476 10.3485 11.2627 10.4716 11.9182 10.7106C12.5737 10.9496 13.2888 11.0727 14.0237 11.0727H17.8774Z" stroke="white" stroke-width="1.5" stroke-linecap="round" stroke-linejoin="round"/>
<path d="M17.8774 8.05273V11.0727H14.0237C13.2888 11.0727 12.5737 10.9496 11.9182 10.7106C11.2627 10.4716 10.5476 10.3485 9.82254 10.3485L5.95898 10.334V8.05273C5.95898 7.71959 6.21724 7.26334 6.545 7.02435L8.65057 5.48901C8.82935 5.35865 8.93858 5.17036 8.93858 4.98206V3.83057H14.8978V4.98206C14.8978 5.17036 15.007 5.35865 15.1858 5.48901L17.2913 7.02435C17.6191 7.26334 17.8774 7.71959 17.8774 8.05273Z" stroke="white" stroke-width="1.5" stroke-linecap="round" stroke-linejoin="round"/>
<path d="M17.8774 11.7967V11.0725" stroke="white" stroke-width="1.5" stroke-linecap="round" stroke-linejoin="round"/>
<path d="M5.95898 11.0582V10.334" stroke="white" stroke-width="1.5" stroke-linecap="round" stroke-linejoin="round"/>
<path d="M14.4013 3.8306H9.43535C8.611 3.8306 7.94556 3.33813 7.94556 2.74428C7.94556 2.15042 8.611 1.65796 9.43535 1.65796H14.4013C15.2257 1.65796 15.8911 2.15042 15.8911 2.74428C15.8911 3.33813 15.2257 3.8306 14.4013 3.8306Z" stroke="white" stroke-width="1.5" stroke-linecap="round" stroke-linejoin="round"/>
</svg>
