<svg width="36" height="38" viewBox="0 0 36 38" fill="none" xmlns="http://www.w3.org/2000/svg">
<path d="M18.0958 31.5402L17.9167 31.743L17.7196 31.5402C9.20917 22.7982 3.58333 17.0175 3.58333 11.1557C3.58333 7.09908 6.27083 4.05662 9.85417 4.05662C12.6133 4.05662 15.3008 6.08493 16.2504 8.84343H19.5829C20.5325 6.08493 23.22 4.05662 25.9792 4.05662C29.5625 4.05662 32.25 7.09908 32.25 11.1557C32.25 17.0175 26.6242 22.7982 18.0958 31.5402ZM25.9792 0C22.8617 0 19.8696 1.64293 17.9167 4.21888C15.9637 1.64293 12.9717 0 9.85417 0C4.33583 0 0 4.88822 0 11.1557C0 18.8024 6.09167 25.0699 15.3187 34.5421L17.9167 37.2195L20.5146 34.5421C29.7417 25.0699 35.8333 18.8024 35.8333 11.1557C35.8333 4.88822 31.4975 0 25.9792 0Z" fill="white"/>
</svg>
