<svg width="39" height="28" viewBox="0 0 39 28" fill="none" xmlns="http://www.w3.org/2000/svg">
<path d="M35.248 16.6628C35.248 21.6334 32.248 25.6628 26.748 25.6628C21.248 25.6628 18.248 21.6334 18.248 16.6628C18.248 14.8227 18.8003 13.1116 19.748 11.6861C21.3604 9.2611 23.6176 10.1628 26.748 10.1628C29.8785 10.1628 32.1356 9.2611 33.748 11.6861C34.6958 13.1116 35.248 14.8227 35.248 16.6628Z" stroke="white" stroke-width="2" stroke-linecap="round" stroke-linejoin="round"/>
<path d="M27.748 10.1628L29.248 8.16284H27.748L26.748 7.16284L25.748 8.16284H24.248L25.748 10.1628" stroke="white" stroke-width="2" stroke-linecap="round" stroke-linejoin="round"/>
<path d="M23.748 14.6628C24.3003 14.6628 24.748 14.2151 24.748 13.6628C24.748 13.1106 24.3003 12.6628 23.748 12.6628C23.1958 12.6628 22.748 13.1106 22.748 13.6628C22.748 14.2151 23.1958 14.6628 23.748 14.6628Z" fill="white"/>
<path d="M22.248 18.1628C22.8003 18.1628 23.248 17.7151 23.248 17.1628C23.248 16.6106 22.8003 16.1628 22.248 16.1628C21.6958 16.1628 21.248 16.6106 21.248 17.1628C21.248 17.7151 21.6958 18.1628 22.248 18.1628Z" fill="white"/>
<path d="M25.248 17.1628C25.8003 17.1628 26.248 16.7151 26.248 16.1628C26.248 15.6106 25.8003 15.1628 25.248 15.1628C24.6958 15.1628 24.248 15.6106 24.248 16.1628C24.248 16.7151 24.6958 17.1628 25.248 17.1628Z" fill="white"/>
<path d="M23.748 20.6628C24.3003 20.6628 24.748 20.2151 24.748 19.6628C24.748 19.1106 24.3003 18.6628 23.748 18.6628C23.1958 18.6628 22.748 19.1106 22.748 19.6628C22.748 20.2151 23.1958 20.6628 23.748 20.6628Z" fill="white"/>
</svg>
